<svg xmlns:xlink="http://www.w3.org/1999/xlink" xmlns="http://www.w3.org/2000/svg" focusable="false" width="27" height="27" class="icon icon--header-customer   " viewBox="0 0 27 27" fill="none">
      <path d="M4.46259 24.5445C4.46259 19.6152 8.45856 15.6193 13.3879 15.6193C18.3172 15.6193 22.3131 19.6152 22.3131 24.5445H20.0818C20.0818 20.8476 17.0848 17.8506 13.3879 17.8506C9.69088 17.8506 6.6939 20.8476 6.6939 24.5445H4.46259ZM13.3879 14.5036C9.68945 14.5036 6.6939 11.5081 6.6939 7.80967C6.6939 4.11127 9.68945 1.11572 13.3879 1.11572C17.0863 1.11572 20.0818 4.11127 20.0818 7.80967C20.0818 11.5081 17.0863 14.5036 13.3879 14.5036ZM13.3879 12.2723C15.8535 12.2723 17.8505 10.2753 17.8505 7.80967C17.8505 5.34407 15.8535 3.34704 13.3879 3.34704C10.9222 3.34704 8.92522 5.34407 8.92522 7.80967C8.92522 10.2753 10.9222 12.2723 13.3879 12.2723Z" fill="#02A8E1"></path>
    </svg>