<svg xmlns:xlink="http://www.w3.org/1999/xlink" xmlns="http://www.w3.org/2000/svg" focusable="false" width="27" height="27" class="icon icon--header-shopping-cart   " viewBox="0 0 28 27" fill="none">
      <path d="M5.36805 7.15883L1.75037 3.54115L3.32814 1.96338L6.94582 5.58106H23.9504C24.5666 5.58106 25.066 6.08055 25.066 6.69672C25.066 6.80529 25.0502 6.91329 25.0191 7.01729L22.3415 15.9426C22.1999 16.4144 21.7655 16.7376 21.2728 16.7376H7.59936V18.9689H19.8717V21.2003H6.4837C5.86754 21.2003 5.36805 20.7008 5.36805 20.0846V7.15883ZM7.59936 7.81237V14.5063H20.4428L22.4509 7.81237H7.59936ZM7.04153 25.6629C6.11729 25.6629 5.36805 24.9136 5.36805 23.9894C5.36805 23.0652 6.11729 22.3159 7.04153 22.3159C7.96578 22.3159 8.71502 23.0652 8.71502 23.9894C8.71502 24.9136 7.96578 25.6629 7.04153 25.6629ZM20.4295 25.6629C19.5052 25.6629 18.756 24.9136 18.756 23.9894C18.756 23.0652 19.5052 22.3159 20.4295 22.3159C21.3537 22.3159 22.103 23.0652 22.103 23.9894C22.103 24.9136 21.3537 25.6629 20.4295 25.6629Z" fill="#02A8E1"></path>
    </svg>