<svg xmlns:xlink="http://www.w3.org/1999/xlink" xmlns="http://www.w3.org/2000/svg" focusable="false" width="26" height="26" class="icon icon--header-search   " viewBox="0 0 26 26">
      <path d="M11.8711 2.1582C17.2325 2.1582 21.5838 6.5095 21.5838 11.8709C21.5838 17.2323 17.2325 21.5836 11.8711 21.5836C6.50971 21.5836 2.15842 17.2323 2.15842 11.8709C2.15842 6.5095 6.50971 2.1582 11.8711 2.1582ZM11.8711 19.4252C16.0449 19.4252 19.4255 16.0447 19.4255 11.8709C19.4255 7.69715 16.0449 4.31658 11.8711 4.31658C7.69736 4.31658 4.3168 7.69715 4.3168 11.8709C4.3168 16.0447 7.69736 19.4252 11.8711 19.4252ZM21.0284 19.502L24.0808 22.5544L22.5546 24.0806L19.5022 21.0282L21.0284 19.502Z" fill="#02A8E1" stroke-width="1.6px"></path>
    </svg>